Patient4_TMGait_0pt3_03_left_08_EMG.mot
version=1
nRows=29
nColumns=33
inDegrees=no
endheader
time	1LAddLong	2LGlutMax	3LGlutMed	4LIliopsoas	5LSemiMemb	6LBicFemLong	7LRecFem	8LVastMed	9LVastLat	10LGasMed	11LTibAnt	12lTibPost	13LPeroneusLong	14LSol	15LExtDigLong	16LFlexDigLong	17RAddLong	18RGlutMax	19RGlutMed	20RIliopsoas	21RSemiMemb	22RBicFemLong	23RRecFem	24RVastMed	25RVastLat	26RGasMed	27RTibAnt	28RTibPost	29RPeroneusLong	30RSol	31RExtDigLong	32RFlexDigLong
15.465	0.003967	-0.06958	-0.22018	0.001526	0.024567	0.000916	0.13534	-0.00412	-0.027466	-0.17303	-0.010071	0.00061	0.033569	-0.039978	0.075531	0.010529	-0.009308	-0.036316	-0.057068	0.060883	0.001678	-0.019531	-0.007477	0.14999	-0.063019	-0.005493	-0.007629	-0.008545	0.32318	0.012665	-0.000458	-0.015106
15.466	0.002441	-0.066833	-0.27756	0.006866	-0.021362	0.037231	0.083771	-0.000458	-0.025177	-0.15793	0.003967	0.001221	0.072479	-0.02655	0.076294	-0.002747	-0.009613	-0.04776	-0.077209	0.092926	0.028534	-0.043945	0.002594	0.068512	0.016632	-0.001221	-0.002594	0.001984	0.18768	0.047607	0	-0.020905
15.467	0.00885	-0.077972	-0.20004	-0.00351	-0.041656	0.014801	0.073395	-0.003204	-0.024109	-0.10056	0.010223	0.00824	0.10956	-0.06897	0.024109	0.011139	-0.005035	-0.001526	-0.085144	0.032806	0.053864	-0.045776	-0.002136	-0.024261	-0.016785	0.002441	-0.006256	-0.005951	0.14694	0.034637	0.000458	-0.022583
15.468	0.013885	-0.036469	0.13977	0	0.002594	-0.023956	0.059662	-0.011292	-0.005951	0.028992	-0.057831	-0.001373	0.12344	-0.16739	0.017395	-0.002594	-0.005188	-0.011749	-0.056	0.010834	0.052795	-0.045471	-0.1709	-0.20859	-0.095978	-0.005493	0.000458	-0.001678	0.068817	0.027313	0.003204	-0.029907
15.469	0.011444	-0.076294	0.068817	-0.003052	0.050507	-0.034637	0.031433	-0.002594	-0.011444	0.02533	-0.065613	-0.006256	0.11826	-0.083466	0.006256	0.002289	-0.010071	-0.028229	-0.088196	0.006409	0.047913	-0.012512	-0.25772	0.004883	0.073242	-0.006104	0.015106	-0.006256	0.010529	-0.000763	-0.003662	-0.015106
15.47	0.014038	-0.034332	0.00824	0.007629	0.044708	-0.019379	0.016632	0.001678	-0.041199	0.02533	-0.041962	-0.001221	0.10025	-0.00885	0.029602	-0.000458	-0.003815	0.005341	0.18097	-0.036163	0.068512	-0.045013	-0.22995	0.068665	0.22675	-0.00061	-0.003967	-0.001526	0.032654	0.033112	0.000305	-0.016632
15.471	0.007935	-0.059204	-0.00946	-0.010071	0.045166	0.001678	0.048065	0.010071	-0.052795	0.03479	-0.007477	0.003815	0.041809	-0.054016	0.042877	-0.000153	-0.013275	0.003204	-0.10025	-0.11139	0.063171	-0.035858	-0.20157	0.067139	0.26596	0.001068	0.000916	-0.002441	0.023041	0.047455	-0.001221	-0.015564
15.472	0.005646	-0.085602	0.013275	-0.014191	0.016632	0.030823	0.044556	0.003052	-0.030518	0.16785	0.050659	0.007019	0.049286	-0.088501	0.051727	-0.002136	-0.010681	0.027466	0.004425	-0.15121	0.054016	-0.046997	-0.094604	0.1355	0.17838	-0.006866	-0.004272	-0.00473	0.007782	0.055084	-0.001678	-0.014343
15.473	0.006714	-0.017548	0.056458	-0.012054	0.006866	0.022125	0.048523	-0.000916	0.022583	0.070648	0.033417	0.003967	0.024414	-0.061646	0.061035	-0.007019	0.001678	-0.001984	-0.28656	-0.019379	0.049286	-0.048828	-0.075073	0.15472	0.082855	-0.006714	-0.00061	-0.005035	0.007629	0.03418	-0.002136	-0.016479
15.474	-0.003204	-0.045471	0.14389	-0.004272	0.009155	0.019226	0.094147	-0.00412	0.050354	-0.051117	0.008392	0.007629	0.011597	0.011292	0.04303	0.000153	-0.006714	-0.023499	0.043335	0.080719	0.060577	-0.076294	-0.11704	0.089111	0.009308	-0.007935	0.014343	-0.00946	-0.001526	0.007935	-0.002136	-0.010376
15.475	0.006561	-0.071259	0.063019	-0.001373	0.007782	0.023651	0.082855	0.000916	0.019531	-0.036926	0.005188	0.003204	0.012665	0.039368	0.031891	-0.003052	0.002289	-0.023346	-0.04715	0.10452	0.0354	-0.062561	-0.1091	0.026855	-0.010834	-0.007324	0.010223	-0.005951	0.025635	0.014038	-0.007629	-0.010986
15.476	0.002289	-0.11627	-0.054169	0.001678	0	0.014343	0.070038	-0.004578	0.054016	-0.031433	0.010071	0.007629	0.061646	0.042419	0.008087	0	0.031128	-0.069885	-0.075226	0.040131	0.11124	-0.046997	-0.089874	-0.019531	-0.029755	-0.003204	0.012054	-0.005646	0.048981	0.024872	-0.001526	-0.012207
15.477	-0.002289	-0.071869	-0.15274	0.008545	0.002899	0.00885	0.051422	0.004883	0.027313	-0.016632	-0.005035	0.004883	0.12222	0.009613	0.021973	-0.00412	0.038452	-0.005188	0.49896	-0.036469	0.17532	-0.072174	-0.06134	-0.018311	-0.047607	-0.003967	0.033264	-0.009308	0.032043	0.040588	-0.003204	-0.011444
15.478	-0.003357	-0.062561	-0.10757	-0.011139	-0.001526	0.000916	0.061035	0.04837	0.022278	-0.020905	-0.014648	0.007629	0.13062	0.027771	0.032043	-0.006256	0.036926	-0.049744	0.61737	0.027313	0.081787	-0.032806	-0.059814	-0.022278	-0.028839	-0.005798	0.054016	-0.007477	-0.028992	0.038452	-0.001068	-0.015411
15.479	-0.005035	-0.11093	-0.16464	-0.009613	-0.000763	0.005951	0.05127	0.005035	0.025482	-0.016479	0.005341	0.003052	0.1236	0.069275	0.058289	0.00473	0.019836	-0.12497	0.41809	-0.070801	0.10864	-0.015564	-0.069122	-0.026398	-0.023346	-0.00061	0.049438	0.005493	-0.045013	0.025482	-0.000916	-0.010834
15.48	-0.012054	-0.078583	-0.19134	-0.02121	-0.014343	0.014191	0.042877	0.006256	0.006866	-0.012665	0.012054	0.00885	0.096741	0.064545	0.049896	0.000305	-0.025635	-0.009918	-0.048065	-0.29862	0.26123	0.014648	-0.12604	0.045166	0.044556	0.00061	0.031281	-0.000305	-0.052032	0.021667	-0.000458	-0.010529
15.481	0.006256	-0.023041	-0.16098	-0.008087	-0.046082	-0.005341	0.056305	0.014038	0.002899	-0.035858	0.006104	-0.000153	0.003967	0.073853	0.009003	-0.005035	-0.075684	-0.027924	0.002594	-0.3067	0.068512	0.079803	-0.12589	0.069885	0.064545	-0.006409	0.045319	0.000305	-0.098114	0.020599	-0.000153	-0.007324
15.482	0.01236	-0.092468	-0.12436	0.008545	0.000153	-0.003815	0.047913	0.010834	0.008087	-0.033417	-0.003815	0.01297	-0.034637	0.029602	-0.006866	-0.003052	-0.046387	-0.084991	-0.080414	-0.15106	-0.001373	0.045776	-0.090332	0.10742	0.056915	0.001831	0.072174	-0.00473	-0.27542	0.007629	-0.00061	-0.002899
15.483	0.019379	-0.09201	-0.16953	0.00473	-0.036316	0.00824	0.068817	-0.000458	0.00412	-0.034027	-0.075531	0.005646	0.093384	-0.003967	-0.011139	-0.004425	-0.004272	-0.12772	-0.17395	0.060577	0.030365	0.010529	-0.13229	0.12085	0.087433	0.002289	0.032501	-0.003357	0.01236	-0.018005	-0.002747	-0.016174
15.484	0.013733	-0.077209	-0.10727	0.012665	-0.005188	-0.007324	0.068207	-0.004578	0.013123	-0.026398	-0.045624	0.003815	0.089264	-0.054779	-0.018768	0.002747	0.004272	-0.080719	-0.1091	0.15961	0.054169	0.006714	-0.17548	0.044403	0.02243	-0.001678	0.032501	-0.001373	0.12863	-0.022125	-0.004578	-0.017853
15.485	0.019836	-0.080261	-0.001678	0.00412	-0.020294	-0.041504	0.047455	-0.010376	0.035553	-0.027161	-0.024414	0.004578	0.017395	-0.052338	0.018768	-0.011139	0.001678	-0.097656	-0.17487	0.30136	0.060272	0.00824	-0.13062	-0.011749	-0.035553	0.005188	0.009766	0.000153	0.28931	-0.082397	-0.003662	-0.019226
15.486	0.010986	-0.056305	-0.02533	-0.007629	-0.05127	-0.053711	0.063934	-0.005798	0.050354	-0.041504	0.095367	0.003967	0.070343	0.010223	0.029602	0.006256	-0.000153	-0.080872	-0.06897	0.31296	0.11368	0.011749	-0.075073	0.011292	-0.042267	0.004425	-0.021362	0.000916	0.24872	-0.080109	-0.003052	-0.018616
15.487	0.00885	-0.046082	-0.10559	0.001373	-0.071411	-0.04425	0.076599	0.001526	0.045624	-0.024261	0.17822	0.000763	0.010986	0.048523	-0.003815	-0.003815	-0.027466	-0.048676	-0.22919	0.23697	0.12558	0.030518	0.003815	0.072174	-0.044556	0.005188	-0.048981	-0.007324	-0.020752	0.041351	-0.003357	-0.013275
15.488	0.002899	-0.071869	-0.15717	0.019684	-0.088196	-0.062408	0.087585	0.000916	0.032806	-0.044708	0.19379	0.003815	-0.08255	0.045929	0.023346	0.007172	-0.01297	-0.011139	-0.33447	0.16266	0.097809	0.019989	0.018463	0.09491	-0.077667	0.002441	-0.046844	-0.006104	-0.092621	0.10544	-0.000153	-0.010376
15.489	0.009155	-0.075531	-0.215	-0.014191	0.001068	-0.06546	0.078888	0.004578	0.033264	-0.069885	-0.029755	0.005035	0.079956	0.02121	0.065613	0.002594	-0.003815	0.003967	-0.30197	0.068817	0.15106	-0.02182	-0.053101	0.038605	-0.099182	0.001068	-0.037231	-0.007782	-0.11765	0.08255	-0.006409	-0.011444
15.49	0.011139	-0.031891	-0.19363	-0.011139	0.037689	0.028229	0.06546	0.004883	0.033722	-0.090637	-0.14221	0.00061	-0.14755	0.051117	0.076141	0.000916	0.0177	0.013123	0.21286	-0.034332	0.17792	-0.044708	-0.10941	0.015259	-0.041351	0.001068	-0.019531	-0.011902	-0.39658	0.1297	-0.005341	-0.009766
15.491	0.012207	-0.032196	-0.13306	0.002441	0.066223	0.007172	0.091858	-0.000153	0.032501	-0.12009	-0.099945	0	-0.23178	0.12878	0.072327	0.005188	0.03418	-0.017242	0.049286	-0.06485	0.14496	-0.075836	-0.11398	0.007629	-0.002289	-0.004425	-0.005798	-0.006561	-0.18967	0.079346	-0.003052	-0.012665
15.492	0.010071	-0.023499	0.011902	-0.00412	0.093689	0.010071	0.090637	-0.000458	0.042114	-0.12558	-0.018616	0.007629	-0.02594	0.073395	-0.015869	-0.001526	0.041656	-0.034332	0.024414	-0.049133	0.045471	-0.059967	-0.082855	-0.015259	0.065308	0.003967	-0.019073	-0.010681	0.13123	0.000305	0.002747	-0.007782
15.493	-0.002289	-0.028534	-0.17364	0.003052	0.026855	0.066681	0.10071	0.004578	0.046692	-0.090942	0.014496	0.001221	0.15472	0.051727	-0.084381	-0.008392	0.028992	-0.009918	-0.00946	-0.024261	-0.005798	-0.021667	-0.10346	-0.081024	0.001526	0.000153	0.016785	-0.007935	0.12024	-0.007782	-0.001831	-0.008392
